<svg xmlns="http://www.w3.org/2000/svg" xmlns:xlink="http://www.w3.org/1999/xlink" width="56" height="168" viewBox="0 0 56 168"><symbol id="a" viewBox="0 -24 24 24"><path fill="#010101" d="M16.6-8.6L12-13.2 7.4-8.6 6-10l6-6 6 6z"/><path fill="none" d="M0 0v-24h24V0z"/></symbol><symbol id="b" viewBox="0 -24 24 24"><path fill="#010101" d="M20.5-3h-.2L15-5.1 9-3 3.4-4.9C3.2-5 3-5.1 3-5.4v-15.1c0-.3.2-.5.5-.5h.2L9-18.9l6-2.1 5.6 1.9c.2.1.4.3.4.5v15.1c0 .3-.2.5-.5.5zM15-19l-6 2.1V-5l6-2.1V-19z"/><path fill="none" d="M24-24H0V0h24z"/></symbol><g><path fill="#010101" d="M19 85.7h3v-3h-3v3zm0 5h3v-3h-3v3zm0-10h3v-3h-3v3zm5 5h13v-3H24v3zm0 5h13v-3H24v3zm0-13v3h13v-3H24z"/><path fill="none" d="M16 16h24v24H16z"/><use xlink:href="#a" width="24" height="24" y="-24" transform="matrix(1 0 0 -1 16 16)" overflow="visible"/><use xlink:href="#b" width="24" height="24" y="-24" transform="matrix(1 0 0 -1 16 128)" overflow="visible"/></g></svg>